<svg width="24" height="25" viewBox="0 0 24 25" fill="none" xmlns="http://www.w3.org/2000/svg">
<g id="icon / iconoir / cart">
<path id="Vector" d="M19.5 22.5C20.3284 22.5 21 21.8284 21 21C21 20.1716 20.3284 19.5 19.5 19.5C18.6716 19.5 18 20.1716 18 21C18 21.8284 18.6716 22.5 19.5 22.5Z" fill="#3E88D2" stroke="#3E88D2" stroke-width="1.5" stroke-linecap="round" stroke-linejoin="round"/>
<path id="Vector_2" d="M9.5 22.5C10.3284 22.5 11 21.8284 11 21C11 20.1716 10.3284 19.5 9.5 19.5C8.67157 19.5 8 20.1716 8 21C8 21.8284 8.67157 22.5 9.5 22.5Z" fill="#3E88D2" stroke="#3E88D2" stroke-width="1.5" stroke-linecap="round" stroke-linejoin="round"/>
<path id="Vector_3" d="M5 4.5C4.83333 3.83333 4 2.5 2 2.5M5 4.5H22L20 15.5H7L5 4.5Z" stroke="#3E88D2" stroke-width="1.5" stroke-linecap="round" stroke-linejoin="round"/>
<path id="Vector_4" d="M20 15.5H7H5.23077C3.44646 15.5 2.5 16.2812 2.5 17.5C2.5 18.7188 3.44646 19.5 5.23077 19.5H19.5" stroke="#3E88D2" stroke-width="1.5" stroke-linecap="round" stroke-linejoin="round"/>
</g>
</svg>
