<svg width="16" height="17" viewBox="0 0 16 17" fill="none" xmlns="http://www.w3.org/2000/svg">
<g id="icon / iconoir / cart">
<path id="Vector" d="M13 15.167C13.5523 15.167 14 14.7193 14 14.167C14 13.6147 13.5523 13.167 13 13.167C12.4477 13.167 12 13.6147 12 14.167C12 14.7193 12.4477 15.167 13 15.167Z" fill="#8C8C8C" stroke="#8C8C8C" stroke-linecap="round" stroke-linejoin="round"/>
<path id="Vector_2" d="M6.33398 15.167C6.88625 15.167 7.33398 14.7193 7.33398 14.167C7.33398 13.6147 6.88625 13.167 6.33398 13.167C5.7817 13.167 5.33398 13.6147 5.33398 14.167C5.33398 14.7193 5.7817 15.167 6.33398 15.167Z" fill="#8C8C8C" stroke="#8C8C8C" stroke-linecap="round" stroke-linejoin="round"/>
<path id="Vector_3" d="M3.33398 3.16634C3.22287 2.72189 2.66732 1.83301 1.33398 1.83301M3.33398 3.16634H14.6673L13.334 10.4997H4.66732L3.33398 3.16634Z" stroke="#8C8C8C" stroke-linecap="round" stroke-linejoin="round"/>
<path id="Vector_4" d="M13.3327 10.5H4.66602H3.48653C2.29699 10.5 1.66602 11.0208 1.66602 11.8333C1.66602 12.6459 2.29699 13.1667 3.48653 13.1667H12.9993" stroke="#8C8C8C" stroke-linecap="round" stroke-linejoin="round"/>
</g>
</svg>
