<svg width="129" height="129" viewBox="0 0 129 129" fill="none" xmlns="http://www.w3.org/2000/svg">
<g filter="url(#filter0_d_573_1653)">
<rect x="16" y="12" width="89" height="89" rx="44.5" fill="white" shape-rendering="crispEdges"/>
<path d="M73.8415 53.3522C72.7428 53.9015 65.6016 52.986 64.3199 52.986C63.0381 52.986 73.2921 42.915 73.2921 42.915C72.1935 41.8164 71.6442 41.084 71.4611 40.5347C71.4032 40.361 70.8426 37.6021 72.3766 36.5063C73.6584 35.5907 75.8556 36.14 76.7712 36.6894C78.3581 37.788 80.112 38.9044 81.4596 39.8669C82.9102 40.9031 83.7698 43.1397 82.8072 44.6799C81.7971 46.296 79.3419 46.0275 77.8018 45.4499C77.8018 45.4499 74.9401 52.8028 73.8415 53.3522Z" fill="#E2DEDE" stroke="#E2DEDE" stroke-width="0.366215"/>
<path d="M80.862 56.7222C79.1294 56.7222 40.4334 53.4493 39.06 56.7222C37.6866 59.995 39.5798 82.399 62.5729 81.1719C82.6147 80.1023 82.5947 56.7222 80.862 56.7222Z" fill="#C1DD44" stroke="#C1DD44" stroke-width="1.92517"/>
<path d="M60.0916 38.1343C60.694 36.1261 63.4064 35.3715 65.1103 34.7021C66.7533 36.1626 66.2102 42.8707 65.1103 45.2906C64.1975 47.2988 58.5381 51.2542 55.6172 52.9581C56.7125 51.4976 59.5052 46.9535 59.8161 46.0208C60.1812 44.9255 59.9378 43.7693 59.8161 43.0999C59.3779 40.6171 59.909 38.7428 60.0916 38.1343Z" fill="#C1DD44" stroke="#C1DD44" stroke-width="0.365119"/>
<path d="M49.594 37.0745C49.4114 35.7966 51.3587 33.119 52.6975 31.7803C52.9896 31.7803 55.0099 34.4578 55.9836 35.7966C56.3487 36.3443 57.3223 38.0482 57.6266 39.0827C57.9917 39.9955 58.1134 42.1253 57.9917 43.099C57.9917 43.5371 57.8077 44.999 57.6266 45.6548C57.2051 47.1817 55.0885 50.7974 53.9323 52.3796C54.5165 50.335 53.819 46.3096 53.5472 44.6789C53.3547 43.5238 52.2173 41.3746 51.4196 40.178C51.0545 39.6303 50.2545 38.6202 49.8894 38.1333C49.6463 37.8092 49.6237 37.2826 49.594 37.0745Z" fill="#C1DD44" stroke="#C1DD44" stroke-width="0.365119"/>
<path d="M43.7574 47.5006C41.5667 45.8576 40.1062 35.4517 40.8364 35.9994C41.5667 36.5471 43.7574 37.2773 43.7574 37.2773L47.0435 38.7378C48.3214 39.3463 51.0233 41.2571 51.6074 44.032C52.1916 46.8069 52.0943 50.7867 51.6074 52.6123C48.3944 51.4439 45.0353 48.6568 43.7574 47.5006Z" fill="#C1DD44" stroke="#C1DD44" stroke-width="0.365119"/>
<path d="M51.5 70.73H50.46V64.08L48.24 70.72H46.94L44.72 64.08V70.73H43.68V62.85H45.32L47.59 69.69L49.86 62.85H51.5V70.73ZM57.9597 70.73H53.7197C53.1797 70.73 52.7997 70.35 52.7997 69.81V63.77C52.7997 63.23 53.1797 62.85 53.7197 62.85H57.8097V63.77H53.9997C53.8997 63.77 53.8397 63.83 53.8397 63.93V66.15H57.5597V67.07H53.8397V69.65C53.8397 69.75 53.8997 69.81 53.9997 69.81H57.9597V70.73ZM64.1385 70.73H59.1585V62.85H64.1385C64.9785 62.85 65.5585 63.43 65.5585 64.27V69.31C65.5585 70.15 64.9785 70.73 64.1385 70.73ZM64.5185 69.37V64.21C64.5185 63.94 64.3485 63.77 64.0785 63.77H60.1985V69.81H64.0785C64.3485 69.81 64.5185 69.64 64.5185 69.37ZM67.8743 70.73H66.8343V62.85H67.8743V70.73ZM74.6966 70.73H70.1366C69.5966 70.73 69.2166 70.35 69.2166 69.81V63.77C69.2166 63.23 69.5966 62.85 70.1366 62.85H74.6966C75.2366 62.85 75.6166 63.23 75.6166 63.77V65.78H74.5766V63.93C74.5766 63.83 74.5166 63.77 74.4166 63.77H70.4166C70.3166 63.77 70.2566 63.83 70.2566 63.93V69.65C70.2566 69.75 70.3166 69.81 70.4166 69.81H74.4166C74.5166 69.81 74.5766 69.75 74.5766 69.65V67.81H75.6166V69.81C75.6166 70.35 75.2366 70.73 74.6966 70.73Z" fill="white"/>
</g>
<defs>
<filter id="filter0_d_573_1653" x="0" y="0" width="129" height="129" filterUnits="userSpaceOnUse" color-interpolation-filters="sRGB">
<feFlood flood-opacity="0" result="BackgroundImageFix"/>
<feColorMatrix in="SourceAlpha" type="matrix" values="0 0 0 0 0 0 0 0 0 0 0 0 0 0 0 0 0 0 127 0" result="hardAlpha"/>
<feOffset dx="4" dy="8"/>
<feGaussianBlur stdDeviation="10"/>
<feComposite in2="hardAlpha" operator="out"/>
<feColorMatrix type="matrix" values="0 0 0 0 0 0 0 0 0 0 0 0 0 0 0 0 0 0 0.1 0"/>
<feBlend mode="normal" in2="BackgroundImageFix" result="effect1_dropShadow_573_1653"/>
<feBlend mode="normal" in="SourceGraphic" in2="effect1_dropShadow_573_1653" result="shape"/>
</filter>
</defs>
</svg>
