<svg width="125" height="121" viewBox="0 0 125 121" fill="none" xmlns="http://www.w3.org/2000/svg">
<g filter="url(#filter0_d_851_2177)">
<rect x="16" y="12" width="89" height="89" rx="44.5" fill="#A6A6A6" shape-rendering="crispEdges"/>
<path d="M73.8415 53.3512C72.7428 53.9005 65.6016 52.985 64.3199 52.985C63.0381 52.985 73.2921 42.9141 73.2921 42.9141C72.1935 41.8154 71.6442 41.083 71.4611 40.5337C71.4032 40.36 70.8426 37.6011 72.3766 36.5053C73.6584 35.5898 75.8556 36.1391 76.7712 36.6884C78.3581 37.787 80.112 38.9034 81.4596 39.866C82.9102 40.9021 83.7698 43.1388 82.8072 44.6789C81.7971 46.295 79.3419 46.0265 77.8018 45.449C77.8018 45.449 74.9401 52.8018 73.8415 53.3512Z" fill="#E2DEDE" stroke="#E2DEDE" stroke-width="0.366215"/>
<path d="M80.862 56.7202C79.1294 56.7202 40.4334 53.4474 39.06 56.7202C37.6866 59.9931 39.5798 82.397 62.5729 81.1699C82.6147 80.1003 82.5947 56.7202 80.862 56.7202Z" fill="#C1DD44" stroke="#C1DD44" stroke-width="1.92517"/>
<path d="M60.0916 38.1333C60.694 36.1251 63.4064 35.3706 65.1103 34.7012C66.7533 36.1616 66.2102 42.8698 65.1103 45.2896C64.1975 47.2978 58.5381 51.2532 55.6172 52.9571C56.7125 51.4966 59.5052 46.9525 59.8161 46.0199C60.1812 44.9245 59.9378 43.7683 59.8161 43.0989C59.3779 40.6161 59.909 38.7418 60.0916 38.1333Z" fill="#C1DD44" stroke="#C1DD44" stroke-width="0.365119"/>
<path d="M49.594 37.0735C49.4114 35.7956 51.3587 33.1181 52.6975 31.7793C52.9896 31.7793 55.0099 34.4568 55.9836 35.7956C56.3487 36.3433 57.3223 38.0472 57.6266 39.0817C57.9917 39.9945 58.1134 42.1243 57.9917 43.098C57.9917 43.5361 57.8077 44.998 57.6266 45.6538C57.2051 47.1807 55.0885 50.7965 53.9323 52.3786C54.5165 50.334 53.819 46.3086 53.5472 44.678C53.3547 43.5229 52.2173 41.3737 51.4196 40.177C51.0545 39.6294 50.2545 38.6192 49.8894 38.1324C49.6463 37.8082 49.6237 37.2817 49.594 37.0735Z" fill="#C1DD44" stroke="#C1DD44" stroke-width="0.365119"/>
<path d="M43.7574 47.4987C41.5667 45.8556 40.1062 35.4497 40.8364 35.9974C41.5667 36.5451 43.7574 37.2753 43.7574 37.2753L47.0435 38.7358C48.3214 39.3443 51.0233 41.2551 51.6074 44.03C52.1916 46.8049 52.0943 50.7847 51.6074 52.6103C48.3944 51.442 45.0353 48.6549 43.7574 47.4987Z" fill="#C1DD44" stroke="#C1DD44" stroke-width="0.365119"/>
<path d="M51.5 70.73H50.46V64.08L48.24 70.72H46.94L44.72 64.08V70.73H43.68V62.85H45.32L47.59 69.69L49.86 62.85H51.5V70.73ZM57.9597 70.73H53.7197C53.1797 70.73 52.7997 70.35 52.7997 69.81V63.77C52.7997 63.23 53.1797 62.85 53.7197 62.85H57.8097V63.77H53.9997C53.8997 63.77 53.8397 63.83 53.8397 63.93V66.15H57.5597V67.07H53.8397V69.65C53.8397 69.75 53.8997 69.81 53.9997 69.81H57.9597V70.73ZM64.1385 70.73H59.1585V62.85H64.1385C64.9785 62.85 65.5585 63.43 65.5585 64.27V69.31C65.5585 70.15 64.9785 70.73 64.1385 70.73ZM64.5185 69.37V64.21C64.5185 63.94 64.3485 63.77 64.0785 63.77H60.1985V69.81H64.0785C64.3485 69.81 64.5185 69.64 64.5185 69.37ZM67.8743 70.73H66.8343V62.85H67.8743V70.73ZM74.6966 70.73H70.1366C69.5966 70.73 69.2166 70.35 69.2166 69.81V63.77C69.2166 63.23 69.5966 62.85 70.1366 62.85H74.6966C75.2366 62.85 75.6166 63.23 75.6166 63.77V65.78H74.5766V63.93C74.5766 63.83 74.5166 63.77 74.4166 63.77H70.4166C70.3166 63.77 70.2566 63.83 70.2566 63.93V69.65C70.2566 69.75 70.3166 69.81 70.4166 69.81H74.4166C74.5166 69.81 74.5766 69.75 74.5766 69.65V67.81H75.6166V69.81C75.6166 70.35 75.2366 70.73 74.6966 70.73Z" fill="white"/>
</g>
<defs>
<filter id="filter0_d_851_2177" x="0" y="0" width="129" height="129" filterUnits="userSpaceOnUse" color-interpolation-filters="sRGB">
<feFlood flood-opacity="0" result="BackgroundImageFix"/>
<feColorMatrix in="SourceAlpha" type="matrix" values="0 0 0 0 0 0 0 0 0 0 0 0 0 0 0 0 0 0 127 0" result="hardAlpha"/>
<feOffset dx="4" dy="8"/>
<feGaussianBlur stdDeviation="10"/>
<feComposite in2="hardAlpha" operator="out"/>
<feColorMatrix type="matrix" values="0 0 0 0 0 0 0 0 0 0 0 0 0 0 0 0 0 0 0.1 0"/>
<feBlend mode="normal" in2="BackgroundImageFix" result="effect1_dropShadow_851_2177"/>
<feBlend mode="normal" in="SourceGraphic" in2="effect1_dropShadow_851_2177" result="shape"/>
</filter>
</defs>
</svg>
