<svg width="17" height="17" viewBox="0 0 17 17" fill="none" xmlns="http://www.w3.org/2000/svg">
<g id="icon / iconoir / search-engine">
<path id="Vector" d="M2.125 13.4583V3.54167C2.125 2.75926 2.75926 2.125 3.54167 2.125H13.4583C14.2408 2.125 14.875 2.75926 14.875 3.54167V13.4583C14.875 14.2408 14.2408 14.875 13.4583 14.875H3.54167C2.75926 14.875 2.125 14.2408 2.125 13.4583Z" stroke="#B2D23E" stroke-width="1.0625"/>
<path id="Vector_2" d="M9.81416 9.80955L11.3327 11.3327M9.81416 9.80955C10.2523 9.37024 10.5231 8.76405 10.5231 8.09461C10.5231 6.75332 9.43584 5.66602 8.09461 5.66602C6.75332 5.66602 5.66602 6.75332 5.66602 8.09461C5.66602 9.43584 6.75332 10.5231 8.09461 10.5231C8.76639 10.5231 9.37449 10.2504 9.81416 9.80955Z" stroke="#B2D23E" stroke-width="1.0625" stroke-linecap="round" stroke-linejoin="round"/>
</g>
</svg>
