<svg width="16" height="17" viewBox="0 0 16 17" fill="none" xmlns="http://www.w3.org/2000/svg">
<g id="icon / iconoir / cart">
<path id="Vector" d="M13 15.166C13.5523 15.166 14 14.7183 14 14.166C14 13.6137 13.5523 13.166 13 13.166C12.4477 13.166 12 13.6137 12 14.166C12 14.7183 12.4477 15.166 13 15.166Z" fill="#B2D23E" stroke="#B2D23E" stroke-linecap="round" stroke-linejoin="round"/>
<path id="Vector_2" d="M6.33398 15.166C6.88625 15.166 7.33398 14.7183 7.33398 14.166C7.33398 13.6137 6.88625 13.166 6.33398 13.166C5.7817 13.166 5.33398 13.6137 5.33398 14.166C5.33398 14.7183 5.7817 15.166 6.33398 15.166Z" fill="#B2D23E" stroke="#B2D23E" stroke-linecap="round" stroke-linejoin="round"/>
<path id="Vector_3" d="M3.33398 3.16732C3.22287 2.72287 2.66732 1.83398 1.33398 1.83398M3.33398 3.16732H14.6673L13.334 10.5007H4.66732L3.33398 3.16732Z" stroke="#B2D23E" stroke-linecap="round" stroke-linejoin="round"/>
<path id="Vector_4" d="M13.3327 10.5H4.66602H3.48653C2.29699 10.5 1.66602 11.0208 1.66602 11.8333C1.66602 12.6459 2.29699 13.1667 3.48653 13.1667H12.9993" stroke="#B2D23E" stroke-linecap="round" stroke-linejoin="round"/>
</g>
</svg>
