<svg width="25" height="28" viewBox="0 0 25 28" fill="none" xmlns="http://www.w3.org/2000/svg">
<g id="Group 4">
<path id="Vector 6" d="M19.5458 12.4047C18.9656 12.6948 15.1944 12.2114 14.5175 12.2114C13.8407 12.2114 19.2557 6.893 19.2557 6.893C18.6755 6.31281 18.3854 5.92602 18.2887 5.63594C18.2582 5.54421 17.9621 4.08727 18.7722 3.5086C19.4491 3.0251 20.6095 3.31519 21.093 3.60528C21.931 4.18547 22.8572 4.775 23.5689 5.28333C24.3349 5.83051 24.7889 7.01166 24.2805 7.82499C23.7471 8.67845 22.4505 8.53665 21.6372 8.23165C21.6372 8.23165 20.126 12.1146 19.5458 12.4047Z" fill="#A1A1A1" stroke="#A1A1A1" stroke-width="0.193395"/>
<path id="Vector 7" d="M23.2534 14.1842C22.3384 14.1842 1.90344 12.4558 1.17815 14.1842C0.452871 15.9125 1.45267 27.7438 13.5951 27.0958C24.1789 26.531 24.1684 14.1842 23.2534 14.1842Z" fill="#B2D23E" stroke="#B2D23E" stroke-width="1.01666"/>
<g id="Group 2">
<path id="Vector 4" d="M12.2847 4.36814C12.6029 3.30765 14.0353 2.90916 14.9351 2.55566C15.8028 3.32693 15.5159 6.86942 14.9351 8.14732C14.453 9.2078 11.4644 11.2966 9.92188 12.1964C10.5003 11.4252 11.9751 9.02548 12.1393 8.53295C12.3321 7.9545 12.2035 7.34392 12.1393 6.99042C11.9079 5.67928 12.1883 4.6895 12.2847 4.36814Z" fill="#B2D23E" stroke="#B2D23E" stroke-width="0.192816"/>
<path id="Vector 3" d="M6.74069 3.80852C6.64428 3.13367 7.67263 1.71969 8.37963 1.0127C8.53388 1.0127 9.60079 2.42668 10.115 3.13367C10.3078 3.42289 10.822 4.3227 10.9826 4.86901C11.1755 5.35105 11.2397 6.47581 11.1755 6.98998C11.1755 7.22136 11.0783 7.99336 10.9826 8.33969C10.76 9.14601 9.64228 11.0555 9.03169 11.891C9.3402 10.8112 8.97188 8.68548 8.82836 7.82435C8.72669 7.21435 8.12606 6.07939 7.70477 5.44746C7.51195 5.15823 7.08951 4.62478 6.8967 4.36769C6.76831 4.1965 6.75639 3.91844 6.74069 3.80852Z" fill="#B2D23E" stroke="#B2D23E" stroke-width="0.192816"/>
<path id="Vector 2" d="M3.65848 9.31419C2.50158 8.44653 1.73031 2.95128 2.11594 3.24051C2.50157 3.52973 3.65848 3.91536 3.65848 3.91536L5.39381 4.68663C6.06866 5.00798 7.49549 6.01705 7.804 7.48245C8.1125 8.94785 8.06109 11.0495 7.804 12.0136C6.10722 11.3966 4.33334 9.92478 3.65848 9.31419Z" fill="#B2D23E" stroke="#B2D23E" stroke-width="0.192816"/>
</g>
</g>
</svg>
