<svg width="108" height="108" viewBox="0 0 108 108" fill="none" xmlns="http://www.w3.org/2000/svg">
<g filter="url(#filter0_d_851_1106)">
<rect x="14" y="10" width="74" height="74" rx="37" fill="#A6A6A6" shape-rendering="crispEdges"/>
<path d="M62.093 44.3826C61.1795 44.8394 55.2419 44.0781 54.1762 44.0781C53.1104 44.0781 61.6363 35.7045 61.6363 35.7045C60.7228 34.7911 60.2661 34.1821 60.1138 33.7253C60.0657 33.5809 59.5995 31.287 60.875 30.3759C61.9408 29.6147 63.7677 30.0714 64.529 30.5281C65.8484 31.4416 67.3067 32.3698 68.4272 33.1702C69.6333 34.0317 70.348 35.8914 69.5477 37.1719C68.7078 38.5157 66.6664 38.2924 65.3858 37.8122C65.3858 37.8122 63.0065 43.9258 62.093 44.3826Z" fill="#E2DEDE" stroke="#E2DEDE" stroke-width="0.304494"/>
<path d="M67.9298 47.184C66.4892 47.184 34.315 44.4628 33.1731 47.184C32.0311 49.9053 33.6053 68.5333 52.7231 67.513C69.3871 66.6237 69.3705 47.1841 67.9298 47.184Z" fill="#C1DD44" stroke="#C1DD44" stroke-width="1.60071"/>
<path d="M50.6597 31.7306C51.1606 30.0609 53.4159 29.4335 54.8326 28.877C56.1987 30.0913 55.7471 35.6688 54.8326 37.6808C54.0736 39.3505 49.3681 42.6393 46.9395 44.0561C47.8502 42.8417 50.1722 39.0635 50.4306 38.288C50.7342 37.3772 50.5318 36.4159 50.4306 35.8593C50.0663 33.795 50.5079 32.2366 50.6597 31.7306Z" fill="#C1DD44" stroke="#C1DD44" stroke-width="0.303582"/>
<path d="M41.9318 30.8492C41.78 29.7867 43.3991 27.5604 44.5123 26.4473C44.7551 26.4473 46.435 28.6735 47.2445 29.7867C47.5481 30.242 48.3576 31.6588 48.6106 32.5189C48.9142 33.2779 49.0154 35.0488 48.9142 35.8583C48.9142 36.2226 48.7612 37.4381 48.6106 37.9834C48.2601 39.2529 46.5003 42.2593 45.5389 43.5748C46.0247 41.8748 45.4448 38.5278 45.2188 37.172C45.0587 36.2116 44.113 34.4246 43.4497 33.4297C43.1461 32.9743 42.481 32.1344 42.1774 31.7296C41.9753 31.4601 41.9565 31.0223 41.9318 30.8492Z" fill="#C1DD44" stroke="#C1DD44" stroke-width="0.303582"/>
<path d="M37.0788 39.5177C35.2573 38.1516 34.043 29.4995 34.6501 29.9548C35.2573 30.4102 37.0788 31.0174 37.0788 31.0174L39.811 32.2317C40.8736 32.7377 43.1201 34.3264 43.6058 36.6336C44.0915 38.9409 44.0106 42.2499 43.6058 43.7678C40.9343 42.7964 38.1413 40.479 37.0788 39.5177Z" fill="#C1DD44" stroke="#C1DD44" stroke-width="0.303582"/>
<path d="M43.5166 58.3492H42.6519V52.8199L40.8061 58.3408H39.7252L37.8793 52.8199V58.3492H37.0146V51.7972H38.3782L40.2656 57.4844L42.153 51.7972H43.5166V58.3492ZM48.8876 58.3492H45.3622C44.9132 58.3492 44.5973 58.0332 44.5973 57.5842V52.5622C44.5973 52.1132 44.9132 51.7972 45.3622 51.7972H48.7629V52.5622H45.595C45.5119 52.5622 45.462 52.6121 45.462 52.6952V54.5411H48.555V55.306H45.462V57.4512C45.462 57.5343 45.5119 57.5842 45.595 57.5842H48.8876V58.3492ZM54.0251 58.3492H49.8844V51.7972H54.0251C54.7235 51.7972 55.2057 52.2795 55.2057 52.9779V57.1685C55.2057 57.8669 54.7235 58.3492 54.0251 58.3492ZM54.341 57.2184V52.928C54.341 52.7035 54.1997 52.5622 53.9752 52.5622H50.7491V57.5842H53.9752C54.1997 57.5842 54.341 57.4429 54.341 57.2184ZM57.1312 58.3492H56.2665V51.7972H57.1312V58.3492ZM62.8037 58.3492H59.0123C58.5633 58.3492 58.2473 58.0332 58.2473 57.5842V52.5622C58.2473 52.1132 58.5633 51.7972 59.0123 51.7972H62.8037C63.2527 51.7972 63.5687 52.1132 63.5687 52.5622V54.2334H62.704V52.6952C62.704 52.6121 62.6541 52.5622 62.5709 52.5622H59.2451C59.1619 52.5622 59.112 52.6121 59.112 52.6952V57.4512C59.112 57.5343 59.1619 57.5842 59.2451 57.5842H62.5709C62.6541 57.5842 62.704 57.5343 62.704 57.4512V55.9213H63.5687V57.5842C63.5687 58.0332 63.2527 58.3492 62.8037 58.3492Z" fill="white"/>
</g>
<defs>
<filter id="filter0_d_851_1106" x="0.696629" y="0.0224719" width="107.258" height="107.258" filterUnits="userSpaceOnUse" color-interpolation-filters="sRGB">
<feFlood flood-opacity="0" result="BackgroundImageFix"/>
<feColorMatrix in="SourceAlpha" type="matrix" values="0 0 0 0 0 0 0 0 0 0 0 0 0 0 0 0 0 0 127 0" result="hardAlpha"/>
<feOffset dx="3.32584" dy="6.65169"/>
<feGaussianBlur stdDeviation="8.31461"/>
<feComposite in2="hardAlpha" operator="out"/>
<feColorMatrix type="matrix" values="0 0 0 0 0 0 0 0 0 0 0 0 0 0 0 0 0 0 0.1 0"/>
<feBlend mode="normal" in2="BackgroundImageFix" result="effect1_dropShadow_851_1106"/>
<feBlend mode="normal" in="SourceGraphic" in2="effect1_dropShadow_851_1106" result="shape"/>
</filter>
</defs>
</svg>
