<svg width="20" height="19" viewBox="0 0 20 19" fill="none" xmlns="http://www.w3.org/2000/svg">
<g id="icon / iconoir / search-engine">
<path id="Vector" d="M3.23828 15.0265V3.97352C3.23828 3.10147 3.94522 2.39453 4.81727 2.39453H15.8702C16.7423 2.39453 17.4492 3.10147 17.4492 3.97352V15.0265C17.4492 15.8986 16.7423 16.6055 15.8702 16.6055H4.81727C3.94522 16.6055 3.23828 15.8986 3.23828 15.0265Z" stroke="white" stroke-width="1.18424"/>
<path id="Vector_2" d="M11.809 10.9611L13.5015 12.6587M11.809 10.9611C12.2973 10.4714 12.5992 9.79579 12.5992 9.04964C12.5992 7.55467 11.3873 6.34277 9.89241 6.34277C8.39744 6.34277 7.18555 7.55467 7.18555 9.04964C7.18555 10.5446 8.39744 11.7564 9.89241 11.7564C10.6412 11.7564 11.319 11.4525 11.809 10.9611Z" stroke="white" stroke-width="1.18424" stroke-linecap="round" stroke-linejoin="round"/>
</g>
</svg>
