<svg width="155" height="192" viewBox="0 0 155 192" fill="none" xmlns="http://www.w3.org/2000/svg">
<path id="Vector" d="M67.9173 163.084H87.084V123.073L102.417 138.407L115.834 124.75L77.5006 86.417L39.1673 124.75L52.8236 138.167L67.9173 123.073V163.084ZM20.0007 191.834C14.7298 191.834 10.2193 189.959 6.46898 186.208C2.7187 182.458 0.840373 177.944 0.833984 172.667V19.3337C0.833984 14.0628 2.71232 9.55227 6.46898 5.80199C10.2256 2.05171 14.7362 0.173381 20.0007 0.166992H96.6673L154.167 57.667V172.667C154.167 177.938 152.292 182.452 148.542 186.208C144.792 189.965 140.278 191.84 135.001 191.834H20.0007ZM87.084 67.2503H135.001L87.084 19.3337V67.2503Z" fill="#3E88D2"/>
</svg>
