<svg width="17" height="17" viewBox="0 0 17 17" fill="none" xmlns="http://www.w3.org/2000/svg">
<g id="icon / iconoir / cart" clip-path="url(#clip0_771_365)">
<path id="Vector" d="M13.8438 15.167C14.396 15.167 14.8438 14.7193 14.8438 14.167C14.8438 13.6147 14.396 13.167 13.8438 13.167C13.2915 13.167 12.8438 13.6147 12.8438 14.167C12.8438 14.7193 13.2915 15.167 13.8438 15.167Z" fill="white" stroke="white" stroke-linecap="round" stroke-linejoin="round"/>
<path id="Vector_2" d="M7.17773 15.167C7.73 15.167 8.17773 14.7193 8.17773 14.167C8.17773 13.6147 7.73 13.167 7.17773 13.167C6.62545 13.167 6.17773 13.6147 6.17773 14.167C6.17773 14.7193 6.62545 15.167 7.17773 15.167Z" fill="white" stroke="white" stroke-linecap="round" stroke-linejoin="round"/>
<path id="Vector_3" d="M4.17773 3.16634C4.06662 2.72189 3.51107 1.83301 2.17773 1.83301M4.17773 3.16634H15.5111L14.1777 10.4997H5.51107L4.17773 3.16634Z" stroke="white" stroke-linecap="round" stroke-linejoin="round"/>
<path id="Vector_4" d="M14.1764 10.5H5.50977H4.33028C3.14074 10.5 2.50977 11.0208 2.50977 11.8333C2.50977 12.6459 3.14074 13.1667 4.33028 13.1667H13.8431" stroke="white" stroke-linecap="round" stroke-linejoin="round"/>
</g>
<defs>
<clipPath id="clip0_771_365">
<rect width="16" height="16" fill="white" transform="translate(0.84375 0.5)"/>
</clipPath>
</defs>
</svg>
