<svg width="24" height="25" viewBox="0 0 24 25" fill="none" xmlns="http://www.w3.org/2000/svg">
<g id="icon / iconoir / thumbs-up">
<path id="Vector" d="M16.4724 20.129H4.1C3.76863 20.129 3.5 19.8604 3.5 19.529V9.72902C3.5 9.39765 3.76863 9.12902 4.1 9.12902H6.86762C7.57015 9.12902 8.22116 8.76042 8.5826 8.15801L11.293 3.64063C11.8779 2.6659 13.2554 2.57324 13.9655 3.46088C14.3002 3.87927 14.4081 4.43537 14.2541 4.94858L13.2317 8.35661C13.1162 8.74158 13.4045 9.12902 13.8064 9.12902H18.3815C19.7002 9.12902 20.658 10.383 20.311 11.6552L18.4019 18.6552C18.1646 19.5254 17.3743 20.129 16.4724 20.129Z" stroke="#B2D23E" stroke-width="1.5" stroke-linecap="round"/>
<path id="Vector_2" d="M7 20.1289V9.12891" stroke="#B2D23E" stroke-width="1.5" stroke-linecap="round" stroke-linejoin="round"/>
</g>
</svg>
