<svg width="37" height="37" viewBox="0 0 37 37" fill="none" xmlns="http://www.w3.org/2000/svg">
<g id="icon / iconoir / search-engine">
<path id="Vector" d="M4.625 29.2917V7.70833C4.625 6.00545 6.00545 4.625 7.70833 4.625H29.2917C30.9946 4.625 32.375 6.00545 32.375 7.70833V29.2917C32.375 30.9946 30.9946 32.375 29.2917 32.375H7.70833C6.00545 32.375 4.625 30.9946 4.625 29.2917Z" stroke="white" stroke-width="1.8"/>
<path id="Vector_2" d="M21.3623 21.3513L24.6673 24.6663M21.3623 21.3513C22.3158 20.3952 22.9053 19.0758 22.9053 17.6188C22.9053 14.6995 20.5389 12.333 17.6197 12.333C14.7005 12.333 12.334 14.6995 12.334 17.6188C12.334 20.5379 14.7005 22.9044 17.6197 22.9044C19.0819 22.9044 20.4054 22.3108 21.3623 21.3513Z" stroke="white" stroke-width="1.8" stroke-linecap="round" stroke-linejoin="round"/>
</g>
</svg>
